<?xml version="1.0" encoding="UTF-8" standalone="no"?>
<svg
   viewBox="0 0 48 48"
   width="48"
   height="48"
   version="1.1"
   xmlns="http://www.w3.org/2000/svg"
   xmlns:svg="http://www.w3.org/2000/svg">
  <path
     id="path2"
     style="fill:#387cc0;fill-opacity:1;fill-rule:evenodd;stroke:none;stroke-width:0.208409;stroke-linecap:round;stroke-linejoin:round;paint-order:stroke fill markers"
     d="M 14.263672 9.0527344 A 2.2168219 2.2168219 0 0 0 12.046875 11.269531 A 2.2168219 2.2168219 0 0 0 14.263672 13.486328 A 2.2168219 2.2168219 0 0 0 16.480469 11.269531 A 2.2168219 2.2168219 0 0 0 14.263672 9.0527344 z M 19.130859 9.0527344 A 2.2168219 2.2168219 0 0 0 16.914062 11.269531 A 2.2168219 2.2168219 0 0 0 19.130859 13.486328 A 2.2168219 2.2168219 0 0 0 21.347656 11.269531 A 2.2168219 2.2168219 0 0 0 19.130859 9.0527344 z M 24 9.0527344 A 2.2168219 2.2168219 0 0 0 21.783203 11.269531 A 2.2168219 2.2168219 0 0 0 24 13.486328 A 2.2168219 2.2168219 0 0 0 26.216797 11.269531 A 2.2168219 2.2168219 0 0 0 24 9.0527344 z M 28.869141 9.0527344 A 2.2168219 2.2168219 0 0 0 26.652344 11.269531 A 2.2168219 2.2168219 0 0 0 28.869141 13.486328 A 2.2168219 2.2168219 0 0 0 31.085938 11.269531 A 2.2168219 2.2168219 0 0 0 28.869141 9.0527344 z M 33.736328 9.0527344 A 2.2168219 2.2168219 0 0 0 31.519531 11.269531 A 2.2168219 2.2168219 0 0 0 33.736328 13.486328 A 2.2168219 2.2168219 0 0 0 35.953125 11.269531 A 2.2168219 2.2168219 0 0 0 33.736328 9.0527344 z M 9.3945312 13.921875 A 2.2168219 2.2168219 0 0 0 7.1777344 16.138672 A 2.2168219 2.2168219 0 0 0 9.3945312 18.355469 A 2.2168219 2.2168219 0 0 0 11.611328 16.138672 A 2.2168219 2.2168219 0 0 0 9.3945312 13.921875 z M 14.263672 13.921875 A 2.2168219 2.2168219 0 0 0 12.046875 16.138672 A 2.2168219 2.2168219 0 0 0 14.263672 18.355469 A 2.2168219 2.2168219 0 0 0 16.480469 16.138672 A 2.2168219 2.2168219 0 0 0 14.263672 13.921875 z M 19.130859 13.921875 A 2.2168219 2.2168219 0 0 0 16.914062 16.138672 A 2.2168219 2.2168219 0 0 0 19.130859 18.355469 A 2.2168219 2.2168219 0 0 0 21.347656 16.138672 A 2.2168219 2.2168219 0 0 0 19.130859 13.921875 z M 24 13.921875 A 2.2168219 2.2168219 0 0 0 21.783203 16.138672 A 2.2168219 2.2168219 0 0 0 24 18.355469 A 2.2168219 2.2168219 0 0 0 26.216797 16.138672 A 2.2168219 2.2168219 0 0 0 24 13.921875 z M 28.869141 13.921875 A 2.2168219 2.2168219 0 0 0 26.652344 16.138672 A 2.2168219 2.2168219 0 0 0 28.869141 18.355469 A 2.2168219 2.2168219 0 0 0 31.085938 16.138672 A 2.2168219 2.2168219 0 0 0 28.869141 13.921875 z M 33.736328 13.921875 A 2.2168219 2.2168219 0 0 0 31.519531 16.138672 A 2.2168219 2.2168219 0 0 0 33.736328 18.355469 A 2.2168219 2.2168219 0 0 0 35.953125 16.138672 A 2.2168219 2.2168219 0 0 0 33.736328 13.921875 z M 38.605469 13.921875 A 2.2168219 2.2168219 0 0 0 36.388672 16.138672 A 2.2168219 2.2168219 0 0 0 38.605469 18.355469 A 2.2168219 2.2168219 0 0 0 40.822266 16.138672 A 2.2168219 2.2168219 0 0 0 38.605469 13.921875 z M 9.3945312 18.791016 A 2.2168219 2.2168219 0 0 0 7.1777344 21.007812 A 2.2168219 2.2168219 0 0 0 9.3945312 23.224609 A 2.2168219 2.2168219 0 0 0 11.611328 21.007812 A 2.2168219 2.2168219 0 0 0 9.3945312 18.791016 z M 14.263672 18.791016 A 2.2168219 2.2168219 0 0 0 12.046875 21.007812 A 2.2168219 2.2168219 0 0 0 14.263672 23.224609 A 2.2168219 2.2168219 0 0 0 16.480469 21.007812 A 2.2168219 2.2168219 0 0 0 14.263672 18.791016 z M 19.130859 18.791016 A 2.2168219 2.2168219 0 0 0 16.914062 21.007812 A 2.2168219 2.2168219 0 0 0 19.130859 23.224609 A 2.2168219 2.2168219 0 0 0 21.347656 21.007812 A 2.2168219 2.2168219 0 0 0 19.130859 18.791016 z M 24 18.791016 A 2.2168219 2.2168219 0 0 0 21.783203 21.007812 A 2.2168219 2.2168219 0 0 0 24 23.224609 A 2.2168219 2.2168219 0 0 0 26.216797 21.007812 A 2.2168219 2.2168219 0 0 0 24 18.791016 z M 28.869141 18.791016 A 2.2168219 2.2168219 0 0 0 26.652344 21.007812 A 2.2168219 2.2168219 0 0 0 28.869141 23.224609 A 2.2168219 2.2168219 0 0 0 31.085938 21.007812 A 2.2168219 2.2168219 0 0 0 28.869141 18.791016 z M 33.736328 18.791016 A 2.2168219 2.2168219 0 0 0 31.519531 21.007812 A 2.2168219 2.2168219 0 0 0 33.736328 23.224609 A 2.2168219 2.2168219 0 0 0 35.953125 21.007812 A 2.2168219 2.2168219 0 0 0 33.736328 18.791016 z M 38.605469 18.791016 A 2.2168219 2.2168219 0 0 0 36.388672 21.007812 A 2.2168219 2.2168219 0 0 0 38.605469 23.224609 A 2.2168219 2.2168219 0 0 0 40.822266 21.007812 A 2.2168219 2.2168219 0 0 0 38.605469 18.791016 z M 9.3945312 23.658203 A 2.2168219 2.2168219 0 0 0 7.1777344 25.875 A 2.2168219 2.2168219 0 0 0 9.3945312 28.091797 A 2.2168219 2.2168219 0 0 0 11.611328 25.875 A 2.2168219 2.2168219 0 0 0 9.3945312 23.658203 z M 14.263672 23.658203 A 2.2168219 2.2168219 0 0 0 12.046875 25.875 A 2.2168219 2.2168219 0 0 0 14.263672 28.091797 A 2.2168219 2.2168219 0 0 0 16.480469 25.875 A 2.2168219 2.2168219 0 0 0 14.263672 23.658203 z M 19.130859 23.658203 A 2.2168219 2.2168219 0 0 0 16.914062 25.875 A 2.2168219 2.2168219 0 0 0 19.130859 28.091797 A 2.2168219 2.2168219 0 0 0 21.347656 25.875 A 2.2168219 2.2168219 0 0 0 19.130859 23.658203 z M 24 23.658203 A 2.2168219 2.2168219 0 0 0 21.783203 25.875 A 2.2168219 2.2168219 0 0 0 24 28.091797 A 2.2168219 2.2168219 0 0 0 26.216797 25.875 A 2.2168219 2.2168219 0 0 0 24 23.658203 z M 28.869141 23.658203 A 2.2168219 2.2168219 0 0 0 26.652344 25.875 A 2.2168219 2.2168219 0 0 0 28.869141 28.091797 A 2.2168219 2.2168219 0 0 0 31.085938 25.875 A 2.2168219 2.2168219 0 0 0 28.869141 23.658203 z M 33.736328 23.658203 A 2.2168219 2.2168219 0 0 0 31.519531 25.875 A 2.2168219 2.2168219 0 0 0 33.736328 28.091797 A 2.2168219 2.2168219 0 0 0 35.953125 25.875 A 2.2168219 2.2168219 0 0 0 33.736328 23.658203 z M 38.605469 23.658203 A 2.2168219 2.2168219 0 0 0 36.388672 25.875 A 2.2168219 2.2168219 0 0 0 38.605469 28.091797 A 2.2168219 2.2168219 0 0 0 40.822266 25.875 A 2.2168219 2.2168219 0 0 0 38.605469 23.658203 z M 9.3945312 28.527344 A 2.2168219 2.2168219 0 0 0 7.1777344 30.744141 A 2.2168219 2.2168219 0 0 0 9.3945312 32.960938 A 2.2168219 2.2168219 0 0 0 11.611328 30.744141 A 2.2168219 2.2168219 0 0 0 9.3945312 28.527344 z M 14.263672 28.527344 A 2.2168219 2.2168219 0 0 0 12.046875 30.744141 A 2.2168219 2.2168219 0 0 0 14.263672 32.960938 A 2.2168219 2.2168219 0 0 0 16.480469 30.744141 A 2.2168219 2.2168219 0 0 0 14.263672 28.527344 z M 19.130859 28.527344 A 2.2168219 2.2168219 0 0 0 16.914062 30.744141 A 2.2168219 2.2168219 0 0 0 19.130859 32.960938 A 2.2168219 2.2168219 0 0 0 21.347656 30.744141 A 2.2168219 2.2168219 0 0 0 19.130859 28.527344 z M 24 28.527344 A 2.2168219 2.2168219 0 0 0 21.783203 30.744141 A 2.2168219 2.2168219 0 0 0 24 32.960938 A 2.2168219 2.2168219 0 0 0 26.216797 30.744141 A 2.2168219 2.2168219 0 0 0 24 28.527344 z M 28.869141 28.527344 A 2.2168219 2.2168219 0 0 0 26.652344 30.744141 A 2.2168219 2.2168219 0 0 0 28.869141 32.960938 A 2.2168219 2.2168219 0 0 0 31.085938 30.744141 A 2.2168219 2.2168219 0 0 0 28.869141 28.527344 z M 33.736328 28.527344 A 2.2168219 2.2168219 0 0 0 31.519531 30.744141 A 2.2168219 2.2168219 0 0 0 33.736328 32.960938 A 2.2168219 2.2168219 0 0 0 35.953125 30.744141 A 2.2168219 2.2168219 0 0 0 33.736328 28.527344 z M 38.605469 28.527344 A 2.2168219 2.2168219 0 0 0 36.388672 30.744141 A 2.2168219 2.2168219 0 0 0 38.605469 32.960938 A 2.2168219 2.2168219 0 0 0 40.822266 30.744141 A 2.2168219 2.2168219 0 0 0 38.605469 28.527344 z M 9.3945312 33.394531 A 2.2168219 2.2168219 0 0 0 7.1777344 35.611328 A 2.2168219 2.2168219 0 0 0 9.3945312 37.828125 A 2.2168219 2.2168219 0 0 0 11.611328 35.611328 A 2.2168219 2.2168219 0 0 0 9.3945312 33.394531 z M 14.263672 33.394531 A 2.2168219 2.2168219 0 0 0 12.046875 35.611328 A 2.2168219 2.2168219 0 0 0 14.263672 37.828125 A 2.2168219 2.2168219 0 0 0 16.480469 35.611328 A 2.2168219 2.2168219 0 0 0 14.263672 33.394531 z M 19.130859 33.394531 A 2.2168219 2.2168219 0 0 0 16.914062 35.611328 A 2.2168219 2.2168219 0 0 0 19.130859 37.828125 A 2.2168219 2.2168219 0 0 0 21.347656 35.611328 A 2.2168219 2.2168219 0 0 0 19.130859 33.394531 z M 24 33.394531 A 2.2168219 2.2168219 0 0 0 21.783203 35.611328 A 2.2168219 2.2168219 0 0 0 24 37.828125 A 2.2168219 2.2168219 0 0 0 26.216797 35.611328 A 2.2168219 2.2168219 0 0 0 24 33.394531 z M 28.869141 33.394531 A 2.2168219 2.2168219 0 0 0 26.652344 35.611328 A 2.2168219 2.2168219 0 0 0 28.869141 37.828125 A 2.2168219 2.2168219 0 0 0 31.085938 35.611328 A 2.2168219 2.2168219 0 0 0 28.869141 33.394531 z M 33.736328 33.394531 A 2.2168219 2.2168219 0 0 0 31.519531 35.611328 A 2.2168219 2.2168219 0 0 0 33.736328 37.828125 A 2.2168219 2.2168219 0 0 0 35.953125 35.611328 A 2.2168219 2.2168219 0 0 0 33.736328 33.394531 z M 38.605469 33.394531 A 2.2168219 2.2168219 0 0 0 36.388672 35.611328 A 2.2168219 2.2168219 0 0 0 38.605469 37.828125 A 2.2168219 2.2168219 0 0 0 40.822266 35.611328 A 2.2168219 2.2168219 0 0 0 38.605469 33.394531 z M 4.5273438 38.263672 A 2.2168219 2.2168219 0 0 0 2.3105469 40.480469 A 2.2168219 2.2168219 0 0 0 4.5273438 42.697266 A 2.2168219 2.2168219 0 0 0 6.7441406 40.480469 A 2.2168219 2.2168219 0 0 0 4.5273438 38.263672 z M 9.3945312 38.263672 A 2.2168219 2.2168219 0 0 0 7.1777344 40.480469 A 2.2168219 2.2168219 0 0 0 9.3945312 42.697266 A 2.2168219 2.2168219 0 0 0 11.611328 40.480469 A 2.2168219 2.2168219 0 0 0 9.3945312 38.263672 z M 14.263672 38.263672 A 2.2168219 2.2168219 0 0 0 12.046875 40.480469 A 2.2168219 2.2168219 0 0 0 14.263672 42.697266 A 2.2168219 2.2168219 0 0 0 16.480469 40.480469 A 2.2168219 2.2168219 0 0 0 14.263672 38.263672 z M 19.130859 38.263672 A 2.2168219 2.2168219 0 0 0 16.914062 40.480469 A 2.2168219 2.2168219 0 0 0 19.130859 42.697266 A 2.2168219 2.2168219 0 0 0 21.347656 40.480469 A 2.2168219 2.2168219 0 0 0 19.130859 38.263672 z M 24 38.263672 A 2.2168219 2.2168219 0 0 0 21.783203 40.480469 A 2.2168219 2.2168219 0 0 0 24 42.697266 A 2.2168219 2.2168219 0 0 0 26.216797 40.480469 A 2.2168219 2.2168219 0 0 0 24 38.263672 z M 28.869141 38.263672 A 2.2168219 2.2168219 0 0 0 26.652344 40.480469 A 2.2168219 2.2168219 0 0 0 28.869141 42.697266 A 2.2168219 2.2168219 0 0 0 31.085938 40.480469 A 2.2168219 2.2168219 0 0 0 28.869141 38.263672 z M 33.736328 38.263672 A 2.2168219 2.2168219 0 0 0 31.519531 40.480469 A 2.2168219 2.2168219 0 0 0 33.736328 42.697266 A 2.2168219 2.2168219 0 0 0 35.953125 40.480469 A 2.2168219 2.2168219 0 0 0 33.736328 38.263672 z M 38.605469 38.263672 A 2.2168219 2.2168219 0 0 0 36.388672 40.480469 A 2.2168219 2.2168219 0 0 0 38.605469 42.697266 A 2.2168219 2.2168219 0 0 0 40.822266 40.480469 A 2.2168219 2.2168219 0 0 0 38.605469 38.263672 z M 43.472656 38.263672 A 2.2168219 2.2168219 0 0 0 41.255859 40.480469 A 2.2168219 2.2168219 0 0 0 43.472656 42.697266 A 2.2168219 2.2168219 0 0 0 45.689453 40.480469 A 2.2168219 2.2168219 0 0 0 43.472656 38.263672 z M 4.5273438 43.130859 A 2.2168219 2.2168219 0 0 0 2.3105469 45.347656 A 2.2168219 2.2168219 0 0 0 4.5273438 47.564453 A 2.2168219 2.2168219 0 0 0 6.7441406 45.347656 A 2.2168219 2.2168219 0 0 0 4.5273438 43.130859 z M 9.3945312 43.130859 A 2.2168219 2.2168219 0 0 0 7.1777344 45.347656 A 2.2168219 2.2168219 0 0 0 9.3945312 47.564453 A 2.2168219 2.2168219 0 0 0 11.611328 45.347656 A 2.2168219 2.2168219 0 0 0 9.3945312 43.130859 z M 14.263672 43.130859 A 2.2168219 2.2168219 0 0 0 12.046875 45.347656 A 2.2168219 2.2168219 0 0 0 14.263672 47.564453 A 2.2168219 2.2168219 0 0 0 16.480469 45.347656 A 2.2168219 2.2168219 0 0 0 14.263672 43.130859 z M 19.130859 43.130859 A 2.2168219 2.2168219 0 0 0 16.914062 45.347656 A 2.2168219 2.2168219 0 0 0 19.130859 47.564453 A 2.2168219 2.2168219 0 0 0 21.347656 45.347656 A 2.2168219 2.2168219 0 0 0 19.130859 43.130859 z M 24 43.130859 A 2.2168219 2.2168219 0 0 0 21.783203 45.347656 A 2.2168219 2.2168219 0 0 0 24 47.564453 A 2.2168219 2.2168219 0 0 0 26.216797 45.347656 A 2.2168219 2.2168219 0 0 0 24 43.130859 z M 28.869141 43.130859 A 2.2168219 2.2168219 0 0 0 26.652344 45.347656 A 2.2168219 2.2168219 0 0 0 28.869141 47.564453 A 2.2168219 2.2168219 0 0 0 31.085938 45.347656 A 2.2168219 2.2168219 0 0 0 28.869141 43.130859 z M 33.736328 43.130859 A 2.2168219 2.2168219 0 0 0 31.519531 45.347656 A 2.2168219 2.2168219 0 0 0 33.736328 47.564453 A 2.2168219 2.2168219 0 0 0 35.953125 45.347656 A 2.2168219 2.2168219 0 0 0 33.736328 43.130859 z M 38.605469 43.130859 A 2.2168219 2.2168219 0 0 0 36.388672 45.347656 A 2.2168219 2.2168219 0 0 0 38.605469 47.564453 A 2.2168219 2.2168219 0 0 0 40.822266 45.347656 A 2.2168219 2.2168219 0 0 0 38.605469 43.130859 z M 43.472656 43.130859 A 2.2168219 2.2168219 0 0 0 41.255859 45.347656 A 2.2168219 2.2168219 0 0 0 43.472656 47.564453 A 2.2168219 2.2168219 0 0 0 45.689453 45.347656 A 2.2168219 2.2168219 0 0 0 43.472656 43.130859 z " />
</svg>
