<?xml version="1.0" encoding="UTF-8" standalone="no"?>
<svg
   viewBox="0 0 48 48"
   width="48"
   height="48"
   version="1.1"
   xmlns="http://www.w3.org/2000/svg"
   xmlns:svg="http://www.w3.org/2000/svg">
  <path
     style="fill:#387cc0;fill-rule:evenodd;stroke-width:4.49705;stroke-linecap:round;stroke-linejoin:round;paint-order:stroke fill markers;fill-opacity:1"
     d="M 13.273438 8.6699219 A 1.2569203 1.2569203 0 0 0 12.015625 9.9257812 A 1.2569203 1.2569203 0 0 0 13.273438 11.183594 A 1.2569203 1.2569203 0 0 0 14.53125 9.9257812 A 1.2569203 1.2569203 0 0 0 13.273438 8.6699219 z M 16.849609 8.6699219 A 1.2569203 1.2569203 0 0 0 15.591797 9.9257812 A 1.2569203 1.2569203 0 0 0 16.849609 11.183594 A 1.2569203 1.2569203 0 0 0 18.105469 9.9257812 A 1.2569203 1.2569203 0 0 0 16.849609 8.6699219 z M 20.423828 8.6699219 A 1.2569203 1.2569203 0 0 0 19.167969 9.9257812 A 1.2569203 1.2569203 0 0 0 20.423828 11.183594 A 1.2569203 1.2569203 0 0 0 21.681641 9.9257812 A 1.2569203 1.2569203 0 0 0 20.423828 8.6699219 z M 24 8.6699219 A 1.2569203 1.2569203 0 0 0 22.742188 9.9257812 A 1.2569203 1.2569203 0 0 0 24 11.183594 A 1.2569203 1.2569203 0 0 0 25.257812 9.9257812 A 1.2569203 1.2569203 0 0 0 24 8.6699219 z M 27.576172 8.6699219 A 1.2569203 1.2569203 0 0 0 26.318359 9.9257812 A 1.2569203 1.2569203 0 0 0 27.576172 11.183594 A 1.2569203 1.2569203 0 0 0 28.832031 9.9257812 A 1.2569203 1.2569203 0 0 0 27.576172 8.6699219 z M 31.150391 8.6699219 A 1.2569203 1.2569203 0 0 0 29.894531 9.9257812 A 1.2569203 1.2569203 0 0 0 31.150391 11.183594 A 1.2569203 1.2569203 0 0 0 32.408203 9.9257812 A 1.2569203 1.2569203 0 0 0 31.150391 8.6699219 z M 34.726562 8.6699219 A 1.2569203 1.2569203 0 0 0 33.46875 9.9257812 A 1.2569203 1.2569203 0 0 0 34.726562 11.183594 A 1.2569203 1.2569203 0 0 0 35.984375 9.9257812 A 1.2569203 1.2569203 0 0 0 34.726562 8.6699219 z M 9.6972656 12.244141 A 1.2569203 1.2569203 0 0 0 8.4414062 13.501953 A 1.2569203 1.2569203 0 0 0 9.6972656 14.757812 A 1.2569203 1.2569203 0 0 0 10.955078 13.501953 A 1.2569203 1.2569203 0 0 0 9.6972656 12.244141 z M 13.273438 12.244141 A 1.2569203 1.2569203 0 0 0 12.015625 13.501953 A 1.2569203 1.2569203 0 0 0 13.273438 14.757812 A 1.2569203 1.2569203 0 0 0 14.53125 13.501953 A 1.2569203 1.2569203 0 0 0 13.273438 12.244141 z M 16.849609 12.244141 A 1.2569203 1.2569203 0 0 0 15.591797 13.501953 A 1.2569203 1.2569203 0 0 0 16.849609 14.757812 A 1.2569203 1.2569203 0 0 0 18.105469 13.501953 A 1.2569203 1.2569203 0 0 0 16.849609 12.244141 z M 20.423828 12.244141 A 1.2569203 1.2569203 0 0 0 19.167969 13.501953 A 1.2569203 1.2569203 0 0 0 20.423828 14.757812 A 1.2569203 1.2569203 0 0 0 21.681641 13.501953 A 1.2569203 1.2569203 0 0 0 20.423828 12.244141 z M 24 12.244141 A 1.2569203 1.2569203 0 0 0 22.742188 13.501953 A 1.2569203 1.2569203 0 0 0 24 14.757812 A 1.2569203 1.2569203 0 0 0 25.257812 13.501953 A 1.2569203 1.2569203 0 0 0 24 12.244141 z M 27.576172 12.244141 A 1.2569203 1.2569203 0 0 0 26.318359 13.501953 A 1.2569203 1.2569203 0 0 0 27.576172 14.757812 A 1.2569203 1.2569203 0 0 0 28.832031 13.501953 A 1.2569203 1.2569203 0 0 0 27.576172 12.244141 z M 31.150391 12.244141 A 1.2569203 1.2569203 0 0 0 29.894531 13.501953 A 1.2569203 1.2569203 0 0 0 31.150391 14.757812 A 1.2569203 1.2569203 0 0 0 32.408203 13.501953 A 1.2569203 1.2569203 0 0 0 31.150391 12.244141 z M 34.726562 12.244141 A 1.2569203 1.2569203 0 0 0 33.46875 13.501953 A 1.2569203 1.2569203 0 0 0 34.726562 14.757812 A 1.2569203 1.2569203 0 0 0 35.984375 13.501953 A 1.2569203 1.2569203 0 0 0 34.726562 12.244141 z M 38.302734 12.244141 A 1.2569203 1.2569203 0 0 0 37.044922 13.501953 A 1.2569203 1.2569203 0 0 0 38.302734 14.757812 A 1.2569203 1.2569203 0 0 0 39.558594 13.501953 A 1.2569203 1.2569203 0 0 0 38.302734 12.244141 z M 9.6972656 15.820312 A 1.2569203 1.2569203 0 0 0 8.4414062 17.078125 A 1.2569203 1.2569203 0 0 0 9.6972656 18.333984 A 1.2569203 1.2569203 0 0 0 10.955078 17.078125 A 1.2569203 1.2569203 0 0 0 9.6972656 15.820312 z M 13.273438 15.820312 A 1.2569203 1.2569203 0 0 0 12.015625 17.078125 A 1.2569203 1.2569203 0 0 0 13.273438 18.333984 A 1.2569203 1.2569203 0 0 0 14.53125 17.078125 A 1.2569203 1.2569203 0 0 0 13.273438 15.820312 z M 16.849609 15.820312 A 1.2569203 1.2569203 0 0 0 15.591797 17.078125 A 1.2569203 1.2569203 0 0 0 16.849609 18.333984 A 1.2569203 1.2569203 0 0 0 18.105469 17.078125 A 1.2569203 1.2569203 0 0 0 16.849609 15.820312 z M 20.423828 15.820312 A 1.2569203 1.2569203 0 0 0 19.167969 17.078125 A 1.2569203 1.2569203 0 0 0 20.423828 18.333984 A 1.2569203 1.2569203 0 0 0 21.681641 17.078125 A 1.2569203 1.2569203 0 0 0 20.423828 15.820312 z M 24 15.820312 A 1.2569203 1.2569203 0 0 0 22.742188 17.078125 A 1.2569203 1.2569203 0 0 0 24 18.333984 A 1.2569203 1.2569203 0 0 0 25.257812 17.078125 A 1.2569203 1.2569203 0 0 0 24 15.820312 z M 27.576172 15.820312 A 1.2569203 1.2569203 0 0 0 26.318359 17.078125 A 1.2569203 1.2569203 0 0 0 27.576172 18.333984 A 1.2569203 1.2569203 0 0 0 28.832031 17.078125 A 1.2569203 1.2569203 0 0 0 27.576172 15.820312 z M 31.150391 15.820312 A 1.2569203 1.2569203 0 0 0 29.894531 17.078125 A 1.2569203 1.2569203 0 0 0 31.150391 18.333984 A 1.2569203 1.2569203 0 0 0 32.408203 17.078125 A 1.2569203 1.2569203 0 0 0 31.150391 15.820312 z M 34.726562 15.820312 A 1.2569203 1.2569203 0 0 0 33.46875 17.078125 A 1.2569203 1.2569203 0 0 0 34.726562 18.333984 A 1.2569203 1.2569203 0 0 0 35.984375 17.078125 A 1.2569203 1.2569203 0 0 0 34.726562 15.820312 z M 38.302734 15.820312 A 1.2569203 1.2569203 0 0 0 37.044922 17.078125 A 1.2569203 1.2569203 0 0 0 38.302734 18.333984 A 1.2569203 1.2569203 0 0 0 39.558594 17.078125 A 1.2569203 1.2569203 0 0 0 38.302734 15.820312 z M 9.6972656 19.396484 A 1.2569203 1.2569203 0 0 0 8.4414062 20.652344 A 1.2569203 1.2569203 0 0 0 9.6972656 21.910156 A 1.2569203 1.2569203 0 0 0 10.955078 20.652344 A 1.2569203 1.2569203 0 0 0 9.6972656 19.396484 z M 13.273438 19.396484 A 1.2569203 1.2569203 0 0 0 12.015625 20.652344 A 1.2569203 1.2569203 0 0 0 13.273438 21.910156 A 1.2569203 1.2569203 0 0 0 14.53125 20.652344 A 1.2569203 1.2569203 0 0 0 13.273438 19.396484 z M 16.849609 19.396484 A 1.2569203 1.2569203 0 0 0 15.591797 20.652344 A 1.2569203 1.2569203 0 0 0 16.849609 21.910156 A 1.2569203 1.2569203 0 0 0 18.105469 20.652344 A 1.2569203 1.2569203 0 0 0 16.849609 19.396484 z M 20.423828 19.396484 A 1.2569203 1.2569203 0 0 0 19.167969 20.652344 A 1.2569203 1.2569203 0 0 0 20.423828 21.910156 A 1.2569203 1.2569203 0 0 0 21.681641 20.652344 A 1.2569203 1.2569203 0 0 0 20.423828 19.396484 z M 24 19.396484 A 1.2569203 1.2569203 0 0 0 22.742188 20.652344 A 1.2569203 1.2569203 0 0 0 24 21.910156 A 1.2569203 1.2569203 0 0 0 25.257812 20.652344 A 1.2569203 1.2569203 0 0 0 24 19.396484 z M 27.576172 19.396484 A 1.2569203 1.2569203 0 0 0 26.318359 20.652344 A 1.2569203 1.2569203 0 0 0 27.576172 21.910156 A 1.2569203 1.2569203 0 0 0 28.832031 20.652344 A 1.2569203 1.2569203 0 0 0 27.576172 19.396484 z M 31.150391 19.396484 A 1.2569203 1.2569203 0 0 0 29.894531 20.652344 A 1.2569203 1.2569203 0 0 0 31.150391 21.910156 A 1.2569203 1.2569203 0 0 0 32.408203 20.652344 A 1.2569203 1.2569203 0 0 0 31.150391 19.396484 z M 34.726562 19.396484 A 1.2569203 1.2569203 0 0 0 33.46875 20.652344 A 1.2569203 1.2569203 0 0 0 34.726562 21.910156 A 1.2569203 1.2569203 0 0 0 35.984375 20.652344 A 1.2569203 1.2569203 0 0 0 34.726562 19.396484 z M 38.302734 19.396484 A 1.2569203 1.2569203 0 0 0 37.044922 20.652344 A 1.2569203 1.2569203 0 0 0 38.302734 21.910156 A 1.2569203 1.2569203 0 0 0 39.558594 20.652344 A 1.2569203 1.2569203 0 0 0 38.302734 19.396484 z M 9.6972656 22.970703 A 1.2569203 1.2569203 0 0 0 8.4414062 24.228516 A 1.2569203 1.2569203 0 0 0 9.6972656 25.484375 A 1.2569203 1.2569203 0 0 0 10.955078 24.228516 A 1.2569203 1.2569203 0 0 0 9.6972656 22.970703 z M 13.273438 22.970703 A 1.2569203 1.2569203 0 0 0 12.015625 24.228516 A 1.2569203 1.2569203 0 0 0 13.273438 25.484375 A 1.2569203 1.2569203 0 0 0 14.53125 24.228516 A 1.2569203 1.2569203 0 0 0 13.273438 22.970703 z M 16.849609 22.970703 A 1.2569203 1.2569203 0 0 0 15.591797 24.228516 A 1.2569203 1.2569203 0 0 0 16.849609 25.484375 A 1.2569203 1.2569203 0 0 0 18.105469 24.228516 A 1.2569203 1.2569203 0 0 0 16.849609 22.970703 z M 20.423828 22.970703 A 1.2569203 1.2569203 0 0 0 19.167969 24.228516 A 1.2569203 1.2569203 0 0 0 20.423828 25.484375 A 1.2569203 1.2569203 0 0 0 21.681641 24.228516 A 1.2569203 1.2569203 0 0 0 20.423828 22.970703 z M 24 22.970703 A 1.2569203 1.2569203 0 0 0 22.742188 24.228516 A 1.2569203 1.2569203 0 0 0 24 25.484375 A 1.2569203 1.2569203 0 0 0 25.257812 24.228516 A 1.2569203 1.2569203 0 0 0 24 22.970703 z M 27.576172 22.970703 A 1.2569203 1.2569203 0 0 0 26.318359 24.228516 A 1.2569203 1.2569203 0 0 0 27.576172 25.484375 A 1.2569203 1.2569203 0 0 0 28.832031 24.228516 A 1.2569203 1.2569203 0 0 0 27.576172 22.970703 z M 31.150391 22.970703 A 1.2569203 1.2569203 0 0 0 29.894531 24.228516 A 1.2569203 1.2569203 0 0 0 31.150391 25.484375 A 1.2569203 1.2569203 0 0 0 32.408203 24.228516 A 1.2569203 1.2569203 0 0 0 31.150391 22.970703 z M 34.726562 22.970703 A 1.2569203 1.2569203 0 0 0 33.46875 24.228516 A 1.2569203 1.2569203 0 0 0 34.726562 25.484375 A 1.2569203 1.2569203 0 0 0 35.984375 24.228516 A 1.2569203 1.2569203 0 0 0 34.726562 22.970703 z M 38.302734 22.970703 A 1.2569203 1.2569203 0 0 0 37.044922 24.228516 A 1.2569203 1.2569203 0 0 0 38.302734 25.484375 A 1.2569203 1.2569203 0 0 0 39.558594 24.228516 A 1.2569203 1.2569203 0 0 0 38.302734 22.970703 z M 9.6972656 26.546875 A 1.2569203 1.2569203 0 0 0 8.4414062 27.804688 A 1.2569203 1.2569203 0 0 0 9.6972656 29.060547 A 1.2569203 1.2569203 0 0 0 10.955078 27.804688 A 1.2569203 1.2569203 0 0 0 9.6972656 26.546875 z M 13.273438 26.546875 A 1.2569203 1.2569203 0 0 0 12.015625 27.804688 A 1.2569203 1.2569203 0 0 0 13.273438 29.060547 A 1.2569203 1.2569203 0 0 0 14.53125 27.804688 A 1.2569203 1.2569203 0 0 0 13.273438 26.546875 z M 16.849609 26.546875 A 1.2569203 1.2569203 0 0 0 15.591797 27.804688 A 1.2569203 1.2569203 0 0 0 16.849609 29.060547 A 1.2569203 1.2569203 0 0 0 18.105469 27.804688 A 1.2569203 1.2569203 0 0 0 16.849609 26.546875 z M 20.423828 26.546875 A 1.2569203 1.2569203 0 0 0 19.167969 27.804688 A 1.2569203 1.2569203 0 0 0 20.423828 29.060547 A 1.2569203 1.2569203 0 0 0 21.681641 27.804688 A 1.2569203 1.2569203 0 0 0 20.423828 26.546875 z M 24 26.546875 A 1.2569203 1.2569203 0 0 0 22.742188 27.804688 A 1.2569203 1.2569203 0 0 0 24 29.060547 A 1.2569203 1.2569203 0 0 0 25.257812 27.804688 A 1.2569203 1.2569203 0 0 0 24 26.546875 z M 27.576172 26.546875 A 1.2569203 1.2569203 0 0 0 26.318359 27.804688 A 1.2569203 1.2569203 0 0 0 27.576172 29.060547 A 1.2569203 1.2569203 0 0 0 28.832031 27.804688 A 1.2569203 1.2569203 0 0 0 27.576172 26.546875 z M 31.150391 26.546875 A 1.2569203 1.2569203 0 0 0 29.894531 27.804688 A 1.2569203 1.2569203 0 0 0 31.150391 29.060547 A 1.2569203 1.2569203 0 0 0 32.408203 27.804688 A 1.2569203 1.2569203 0 0 0 31.150391 26.546875 z M 34.726562 26.546875 A 1.2569203 1.2569203 0 0 0 33.46875 27.804688 A 1.2569203 1.2569203 0 0 0 34.726562 29.060547 A 1.2569203 1.2569203 0 0 0 35.984375 27.804688 A 1.2569203 1.2569203 0 0 0 34.726562 26.546875 z M 38.302734 26.546875 A 1.2569203 1.2569203 0 0 0 37.044922 27.804688 A 1.2569203 1.2569203 0 0 0 38.302734 29.060547 A 1.2569203 1.2569203 0 0 0 39.558594 27.804688 A 1.2569203 1.2569203 0 0 0 38.302734 26.546875 z M 9.6972656 30.123047 A 1.2569203 1.2569203 0 0 0 8.4414062 31.378906 A 1.2569203 1.2569203 0 0 0 9.6972656 32.636719 A 1.2569203 1.2569203 0 0 0 10.955078 31.378906 A 1.2569203 1.2569203 0 0 0 9.6972656 30.123047 z M 13.273438 30.123047 A 1.2569203 1.2569203 0 0 0 12.015625 31.378906 A 1.2569203 1.2569203 0 0 0 13.273438 32.636719 A 1.2569203 1.2569203 0 0 0 14.53125 31.378906 A 1.2569203 1.2569203 0 0 0 13.273438 30.123047 z M 16.849609 30.123047 A 1.2569203 1.2569203 0 0 0 15.591797 31.378906 A 1.2569203 1.2569203 0 0 0 16.849609 32.636719 A 1.2569203 1.2569203 0 0 0 18.105469 31.378906 A 1.2569203 1.2569203 0 0 0 16.849609 30.123047 z M 20.423828 30.123047 A 1.2569203 1.2569203 0 0 0 19.167969 31.378906 A 1.2569203 1.2569203 0 0 0 20.423828 32.636719 A 1.2569203 1.2569203 0 0 0 21.681641 31.378906 A 1.2569203 1.2569203 0 0 0 20.423828 30.123047 z M 24 30.123047 A 1.2569203 1.2569203 0 0 0 22.742188 31.378906 A 1.2569203 1.2569203 0 0 0 24 32.636719 A 1.2569203 1.2569203 0 0 0 25.257812 31.378906 A 1.2569203 1.2569203 0 0 0 24 30.123047 z M 27.576172 30.123047 A 1.2569203 1.2569203 0 0 0 26.318359 31.378906 A 1.2569203 1.2569203 0 0 0 27.576172 32.636719 A 1.2569203 1.2569203 0 0 0 28.832031 31.378906 A 1.2569203 1.2569203 0 0 0 27.576172 30.123047 z M 31.150391 30.123047 A 1.2569203 1.2569203 0 0 0 29.894531 31.378906 A 1.2569203 1.2569203 0 0 0 31.150391 32.636719 A 1.2569203 1.2569203 0 0 0 32.408203 31.378906 A 1.2569203 1.2569203 0 0 0 31.150391 30.123047 z M 34.726562 30.123047 A 1.2569203 1.2569203 0 0 0 33.46875 31.378906 A 1.2569203 1.2569203 0 0 0 34.726562 32.636719 A 1.2569203 1.2569203 0 0 0 35.984375 31.378906 A 1.2569203 1.2569203 0 0 0 34.726562 30.123047 z M 38.302734 30.123047 A 1.2569203 1.2569203 0 0 0 37.044922 31.378906 A 1.2569203 1.2569203 0 0 0 38.302734 32.636719 A 1.2569203 1.2569203 0 0 0 39.558594 31.378906 A 1.2569203 1.2569203 0 0 0 38.302734 30.123047 z M 9.6972656 33.697266 A 1.2569203 1.2569203 0 0 0 8.4414062 34.955078 A 1.2569203 1.2569203 0 0 0 9.6972656 36.210938 A 1.2569203 1.2569203 0 0 0 10.955078 34.955078 A 1.2569203 1.2569203 0 0 0 9.6972656 33.697266 z M 13.273438 33.697266 A 1.2569203 1.2569203 0 0 0 12.015625 34.955078 A 1.2569203 1.2569203 0 0 0 13.273438 36.210938 A 1.2569203 1.2569203 0 0 0 14.53125 34.955078 A 1.2569203 1.2569203 0 0 0 13.273438 33.697266 z M 16.849609 33.697266 A 1.2569203 1.2569203 0 0 0 15.591797 34.955078 A 1.2569203 1.2569203 0 0 0 16.849609 36.210938 A 1.2569203 1.2569203 0 0 0 18.105469 34.955078 A 1.2569203 1.2569203 0 0 0 16.849609 33.697266 z M 20.423828 33.697266 A 1.2569203 1.2569203 0 0 0 19.167969 34.955078 A 1.2569203 1.2569203 0 0 0 20.423828 36.210938 A 1.2569203 1.2569203 0 0 0 21.681641 34.955078 A 1.2569203 1.2569203 0 0 0 20.423828 33.697266 z M 24 33.697266 A 1.2569203 1.2569203 0 0 0 22.742188 34.955078 A 1.2569203 1.2569203 0 0 0 24 36.210938 A 1.2569203 1.2569203 0 0 0 25.257812 34.955078 A 1.2569203 1.2569203 0 0 0 24 33.697266 z M 27.576172 33.697266 A 1.2569203 1.2569203 0 0 0 26.318359 34.955078 A 1.2569203 1.2569203 0 0 0 27.576172 36.210938 A 1.2569203 1.2569203 0 0 0 28.832031 34.955078 A 1.2569203 1.2569203 0 0 0 27.576172 33.697266 z M 31.150391 33.697266 A 1.2569203 1.2569203 0 0 0 29.894531 34.955078 A 1.2569203 1.2569203 0 0 0 31.150391 36.210938 A 1.2569203 1.2569203 0 0 0 32.408203 34.955078 A 1.2569203 1.2569203 0 0 0 31.150391 33.697266 z M 34.726562 33.697266 A 1.2569203 1.2569203 0 0 0 33.46875 34.955078 A 1.2569203 1.2569203 0 0 0 34.726562 36.210938 A 1.2569203 1.2569203 0 0 0 35.984375 34.955078 A 1.2569203 1.2569203 0 0 0 34.726562 33.697266 z M 38.302734 33.697266 A 1.2569203 1.2569203 0 0 0 37.044922 34.955078 A 1.2569203 1.2569203 0 0 0 38.302734 36.210938 A 1.2569203 1.2569203 0 0 0 39.558594 34.955078 A 1.2569203 1.2569203 0 0 0 38.302734 33.697266 z M 6.1230469 37.273438 A 1.2569203 1.2569203 0 0 0 4.8652344 38.53125 A 1.2569203 1.2569203 0 0 0 6.1230469 39.787109 A 1.2569203 1.2569203 0 0 0 7.3789062 38.53125 A 1.2569203 1.2569203 0 0 0 6.1230469 37.273438 z M 9.6972656 37.273438 A 1.2569203 1.2569203 0 0 0 8.4414062 38.53125 A 1.2569203 1.2569203 0 0 0 9.6972656 39.787109 A 1.2569203 1.2569203 0 0 0 10.955078 38.53125 A 1.2569203 1.2569203 0 0 0 9.6972656 37.273438 z M 13.273438 37.273438 A 1.2569203 1.2569203 0 0 0 12.015625 38.53125 A 1.2569203 1.2569203 0 0 0 13.273438 39.787109 A 1.2569203 1.2569203 0 0 0 14.53125 38.53125 A 1.2569203 1.2569203 0 0 0 13.273438 37.273438 z M 16.849609 37.273438 A 1.2569203 1.2569203 0 0 0 15.591797 38.53125 A 1.2569203 1.2569203 0 0 0 16.849609 39.787109 A 1.2569203 1.2569203 0 0 0 18.105469 38.53125 A 1.2569203 1.2569203 0 0 0 16.849609 37.273438 z M 20.423828 37.273438 A 1.2569203 1.2569203 0 0 0 19.167969 38.53125 A 1.2569203 1.2569203 0 0 0 20.423828 39.787109 A 1.2569203 1.2569203 0 0 0 21.681641 38.53125 A 1.2569203 1.2569203 0 0 0 20.423828 37.273438 z M 24 37.273438 A 1.2569203 1.2569203 0 0 0 22.742188 38.53125 A 1.2569203 1.2569203 0 0 0 24 39.787109 A 1.2569203 1.2569203 0 0 0 25.257812 38.53125 A 1.2569203 1.2569203 0 0 0 24 37.273438 z M 27.576172 37.273438 A 1.2569203 1.2569203 0 0 0 26.318359 38.53125 A 1.2569203 1.2569203 0 0 0 27.576172 39.787109 A 1.2569203 1.2569203 0 0 0 28.832031 38.53125 A 1.2569203 1.2569203 0 0 0 27.576172 37.273438 z M 31.150391 37.273438 A 1.2569203 1.2569203 0 0 0 29.894531 38.53125 A 1.2569203 1.2569203 0 0 0 31.150391 39.787109 A 1.2569203 1.2569203 0 0 0 32.408203 38.53125 A 1.2569203 1.2569203 0 0 0 31.150391 37.273438 z M 34.726562 37.273438 A 1.2569203 1.2569203 0 0 0 33.46875 38.53125 A 1.2569203 1.2569203 0 0 0 34.726562 39.787109 A 1.2569203 1.2569203 0 0 0 35.984375 38.53125 A 1.2569203 1.2569203 0 0 0 34.726562 37.273438 z M 38.302734 37.273438 A 1.2569203 1.2569203 0 0 0 37.044922 38.53125 A 1.2569203 1.2569203 0 0 0 38.302734 39.787109 A 1.2569203 1.2569203 0 0 0 39.558594 38.53125 A 1.2569203 1.2569203 0 0 0 38.302734 37.273438 z M 41.876953 37.273438 A 1.2569203 1.2569203 0 0 0 40.621094 38.53125 A 1.2569203 1.2569203 0 0 0 41.876953 39.787109 A 1.2569203 1.2569203 0 0 0 43.134766 38.53125 A 1.2569203 1.2569203 0 0 0 41.876953 37.273438 z M 2.546875 40.849609 A 1.2569203 1.2569203 0 0 0 1.2890625 42.105469 A 1.2569203 1.2569203 0 0 0 2.546875 43.363281 A 1.2569203 1.2569203 0 0 0 3.8046875 42.105469 A 1.2569203 1.2569203 0 0 0 2.546875 40.849609 z M 6.1230469 40.849609 A 1.2569203 1.2569203 0 0 0 4.8652344 42.105469 A 1.2569203 1.2569203 0 0 0 6.1230469 43.363281 A 1.2569203 1.2569203 0 0 0 7.3789062 42.105469 A 1.2569203 1.2569203 0 0 0 6.1230469 40.849609 z M 9.6972656 40.849609 A 1.2569203 1.2569203 0 0 0 8.4414062 42.105469 A 1.2569203 1.2569203 0 0 0 9.6972656 43.363281 A 1.2569203 1.2569203 0 0 0 10.955078 42.105469 A 1.2569203 1.2569203 0 0 0 9.6972656 40.849609 z M 13.273438 40.849609 A 1.2569203 1.2569203 0 0 0 12.015625 42.105469 A 1.2569203 1.2569203 0 0 0 13.273438 43.363281 A 1.2569203 1.2569203 0 0 0 14.53125 42.105469 A 1.2569203 1.2569203 0 0 0 13.273438 40.849609 z M 16.849609 40.849609 A 1.2569203 1.2569203 0 0 0 15.591797 42.105469 A 1.2569203 1.2569203 0 0 0 16.849609 43.363281 A 1.2569203 1.2569203 0 0 0 18.105469 42.105469 A 1.2569203 1.2569203 0 0 0 16.849609 40.849609 z M 20.423828 40.849609 A 1.2569203 1.2569203 0 0 0 19.167969 42.105469 A 1.2569203 1.2569203 0 0 0 20.423828 43.363281 A 1.2569203 1.2569203 0 0 0 21.681641 42.105469 A 1.2569203 1.2569203 0 0 0 20.423828 40.849609 z M 24 40.849609 A 1.2569203 1.2569203 0 0 0 22.742188 42.105469 A 1.2569203 1.2569203 0 0 0 24 43.363281 A 1.2569203 1.2569203 0 0 0 25.257812 42.105469 A 1.2569203 1.2569203 0 0 0 24 40.849609 z M 27.576172 40.849609 A 1.2569203 1.2569203 0 0 0 26.318359 42.105469 A 1.2569203 1.2569203 0 0 0 27.576172 43.363281 A 1.2569203 1.2569203 0 0 0 28.832031 42.105469 A 1.2569203 1.2569203 0 0 0 27.576172 40.849609 z M 31.150391 40.849609 A 1.2569203 1.2569203 0 0 0 29.894531 42.105469 A 1.2569203 1.2569203 0 0 0 31.150391 43.363281 A 1.2569203 1.2569203 0 0 0 32.408203 42.105469 A 1.2569203 1.2569203 0 0 0 31.150391 40.849609 z M 34.726562 40.849609 A 1.2569203 1.2569203 0 0 0 33.46875 42.105469 A 1.2569203 1.2569203 0 0 0 34.726562 43.363281 A 1.2569203 1.2569203 0 0 0 35.984375 42.105469 A 1.2569203 1.2569203 0 0 0 34.726562 40.849609 z M 38.302734 40.849609 A 1.2569203 1.2569203 0 0 0 37.044922 42.105469 A 1.2569203 1.2569203 0 0 0 38.302734 43.363281 A 1.2569203 1.2569203 0 0 0 39.558594 42.105469 A 1.2569203 1.2569203 0 0 0 38.302734 40.849609 z M 41.876953 40.849609 A 1.2569203 1.2569203 0 0 0 40.621094 42.105469 A 1.2569203 1.2569203 0 0 0 41.876953 43.363281 A 1.2569203 1.2569203 0 0 0 43.134766 42.105469 A 1.2569203 1.2569203 0 0 0 41.876953 40.849609 z M 45.453125 40.849609 A 1.2569203 1.2569203 0 0 0 44.195312 42.105469 A 1.2569203 1.2569203 0 0 0 45.453125 43.363281 A 1.2569203 1.2569203 0 0 0 46.710938 42.105469 A 1.2569203 1.2569203 0 0 0 45.453125 40.849609 z M 2.546875 44.423828 A 1.2569203 1.2569203 0 0 0 1.2890625 45.681641 A 1.2569203 1.2569203 0 0 0 2.546875 46.9375 A 1.2569203 1.2569203 0 0 0 3.8046875 45.681641 A 1.2569203 1.2569203 0 0 0 2.546875 44.423828 z M 6.1230469 44.423828 A 1.2569203 1.2569203 0 0 0 4.8652344 45.681641 A 1.2569203 1.2569203 0 0 0 6.1230469 46.9375 A 1.2569203 1.2569203 0 0 0 7.3789062 45.681641 A 1.2569203 1.2569203 0 0 0 6.1230469 44.423828 z M 9.6972656 44.423828 A 1.2569203 1.2569203 0 0 0 8.4414062 45.681641 A 1.2569203 1.2569203 0 0 0 9.6972656 46.9375 A 1.2569203 1.2569203 0 0 0 10.955078 45.681641 A 1.2569203 1.2569203 0 0 0 9.6972656 44.423828 z M 13.273438 44.423828 A 1.2569203 1.2569203 0 0 0 12.015625 45.681641 A 1.2569203 1.2569203 0 0 0 13.273438 46.9375 A 1.2569203 1.2569203 0 0 0 14.53125 45.681641 A 1.2569203 1.2569203 0 0 0 13.273438 44.423828 z M 16.849609 44.423828 A 1.2569203 1.2569203 0 0 0 15.591797 45.681641 A 1.2569203 1.2569203 0 0 0 16.849609 46.9375 A 1.2569203 1.2569203 0 0 0 18.105469 45.681641 A 1.2569203 1.2569203 0 0 0 16.849609 44.423828 z M 20.423828 44.423828 A 1.2569203 1.2569203 0 0 0 19.167969 45.681641 A 1.2569203 1.2569203 0 0 0 20.423828 46.9375 A 1.2569203 1.2569203 0 0 0 21.681641 45.681641 A 1.2569203 1.2569203 0 0 0 20.423828 44.423828 z M 24 44.423828 A 1.2569203 1.2569203 0 0 0 22.742188 45.681641 A 1.2569203 1.2569203 0 0 0 24 46.9375 A 1.2569203 1.2569203 0 0 0 25.257812 45.681641 A 1.2569203 1.2569203 0 0 0 24 44.423828 z M 27.576172 44.423828 A 1.2569203 1.2569203 0 0 0 26.318359 45.681641 A 1.2569203 1.2569203 0 0 0 27.576172 46.9375 A 1.2569203 1.2569203 0 0 0 28.832031 45.681641 A 1.2569203 1.2569203 0 0 0 27.576172 44.423828 z M 31.150391 44.423828 A 1.2569203 1.2569203 0 0 0 29.894531 45.681641 A 1.2569203 1.2569203 0 0 0 31.150391 46.9375 A 1.2569203 1.2569203 0 0 0 32.408203 45.681641 A 1.2569203 1.2569203 0 0 0 31.150391 44.423828 z M 34.726562 44.423828 A 1.2569203 1.2569203 0 0 0 33.46875 45.681641 A 1.2569203 1.2569203 0 0 0 34.726562 46.9375 A 1.2569203 1.2569203 0 0 0 35.984375 45.681641 A 1.2569203 1.2569203 0 0 0 34.726562 44.423828 z M 38.302734 44.423828 A 1.2569203 1.2569203 0 0 0 37.044922 45.681641 A 1.2569203 1.2569203 0 0 0 38.302734 46.9375 A 1.2569203 1.2569203 0 0 0 39.558594 45.681641 A 1.2569203 1.2569203 0 0 0 38.302734 44.423828 z M 41.876953 44.423828 A 1.2569203 1.2569203 0 0 0 40.621094 45.681641 A 1.2569203 1.2569203 0 0 0 41.876953 46.9375 A 1.2569203 1.2569203 0 0 0 43.134766 45.681641 A 1.2569203 1.2569203 0 0 0 41.876953 44.423828 z M 45.453125 44.423828 A 1.2569203 1.2569203 0 0 0 44.195312 45.681641 A 1.2569203 1.2569203 0 0 0 45.453125 46.9375 A 1.2569203 1.2569203 0 0 0 46.710938 45.681641 A 1.2569203 1.2569203 0 0 0 45.453125 44.423828 z " />
</svg>
